<svg xmlns="http://www.w3.org/2000/svg" height="48px" viewBox="0 -960 960 960" width="48px" fill="#46152F"><path d="M258.77-277.77h446.15L577.54-448.54q-5.85 1-9.42.35-3.57-.66-7.2-2.19L447-305.23l-83.23-107.38-105 134.84ZM192.69-122q-28.25 0-49.47-21.22T122-192.69v-570.62q0-28.25 21.22-49.47T192.69-834h189.23v58.39H192.69q-4.61 0-8.46 3.84-3.84 3.85-3.84 8.46v570.62q0 4.61 3.84 8.46 3.85 3.84 8.46 3.84h570.62q4.61 0 8.46-3.84 3.84-3.85 3.84-8.46v-241.23L834-375.54v182.85q0 28.25-21.22 49.47T763.31-122H192.69ZM478-478Zm393.15 36.54L738.69-573.92q-21.23 14.38-41.38 21-20.16 6.61-46.83 6.61-70.99 0-118.12-47.15-47.13-47.14-47.13-116.65 0-69.5 47.19-116.7Q579.62-874 648.88-874q69.27 0 116.47 47.16 47.19 47.16 47.19 117.07 0 26.5-6.9 51.31-6.91 24.81-21.33 46.54l128.46 128.46-41.62 42ZM648.88-604.69q46.04 0 75.66-29.81 29.61-29.81 29.61-75.85 0-46.03-29.55-75.65-29.55-29.61-75.91-29.61-45.84 0-75.46 29.55-29.61 29.55-29.61 75.91 0 45.84 29.61 75.65 29.62 29.81 75.65 29.81Z"/></svg>